<?xml version="1.0" encoding="us-ascii" standalone="no"?><svg xmlns="http://www.w3.org/2000/svg" xmlns:xlink="http://www.w3.org/1999/xlink" contentStyleType="text/css" height="470px" preserveAspectRatio="none" style="width:857px;height:470px;background:#FFFFFF;" version="1.1" viewBox="0 0 857 470" width="857px" zoomAndPan="magnify"><defs/><g><text fill="#000000" font-family="sans-serif" font-size="14" font-weight="bold" lengthAdjust="spacing" textLength="287" x="278.25" y="22.9951">Observability backend tools diagram</text><!--cluster todo--><g id="cluster_todo"><path d="M494.5,258.2969 L531.5,258.2969 A3.75,3.75 0 0 1 534,260.7969 L541,280.5938 L647.5,280.5938 A2.5,2.5 0 0 1 650,283.0938 L650,352.7969 A2.5,2.5 0 0 1 647.5,355.2969 L494.5,355.2969 A2.5,2.5 0 0 1 492,352.7969 L492,260.7969 A2.5,2.5 0 0 1 494.5,258.2969 " fill="none" style="stroke:#000000;stroke-width:1.5;"/><line style="stroke:#000000;stroke-width:1.5;" x1="492" x2="541" y1="280.5938" y2="280.5938"/><text fill="#000000" font-family="sans-serif" font-size="14" font-weight="bold" lengthAdjust="spacing" textLength="36" x="496" y="273.292">todo</text></g><!--entity OpenSearch--><g id="elem_OpenSearch"><rect fill="#F1F1F1" height="46.2969" rx="2.5" ry="2.5" style="stroke:#181818;stroke-width:0.5;" width="126" x="508" y="293.2969"/><rect fill="#F1F1F1" height="10" style="stroke:#181818;stroke-width:0.5;" width="15" x="614" y="298.2969"/><rect fill="#F1F1F1" height="2" style="stroke:#181818;stroke-width:0.5;" width="4" x="612" y="300.2969"/><rect fill="#F1F1F1" height="2" style="stroke:#181818;stroke-width:0.5;" width="4" x="612" y="304.2969"/><text fill="#000000" font-family="sans-serif" font-size="14" lengthAdjust="spacing" textLength="86" x="523" y="326.292">OpenSearch</text></g><!--entity APP--><g id="elem_APP"><ellipse cx="550" cy="51.2969" fill="#F1F1F1" rx="8" ry="8" style="stroke:#181818;stroke-width:0.5;"/><text fill="#000000" font-family="sans-serif" font-size="14" lengthAdjust="spacing" textLength="27" x="536.5" y="81.292">APP</text></g><!--entity OTEL Collector--><g id="elem_OTEL Collector"><rect fill="#F1F1F1" height="46.2969" rx="2.5" ry="2.5" style="stroke:#181818;stroke-width:0.5;" width="141" x="479.5" y="143.2969"/><rect fill="#F1F1F1" height="10" style="stroke:#181818;stroke-width:0.5;" width="15" x="600.5" y="148.2969"/><rect fill="#F1F1F1" height="2" style="stroke:#181818;stroke-width:0.5;" width="4" x="598.5" y="150.2969"/><rect fill="#F1F1F1" height="2" style="stroke:#181818;stroke-width:0.5;" width="4" x="598.5" y="154.2969"/><text fill="#000000" font-family="sans-serif" font-size="14" lengthAdjust="spacing" textLength="101" x="494.5" y="176.292">OTEL Collector</text></g><!--entity Grafana Mimir--><g id="elem_Grafana Mimir"><rect fill="#F1F1F1" height="46.2969" rx="2.5" ry="2.5" style="stroke:#181818;stroke-width:0.5;" width="133" x="400.5" y="418.2969"/><rect fill="#F1F1F1" height="10" style="stroke:#181818;stroke-width:0.5;" width="15" x="513.5" y="423.2969"/><rect fill="#F1F1F1" height="2" style="stroke:#181818;stroke-width:0.5;" width="4" x="511.5" y="425.2969"/><rect fill="#F1F1F1" height="2" style="stroke:#181818;stroke-width:0.5;" width="4" x="511.5" y="429.2969"/><text fill="#000000" font-family="sans-serif" font-size="14" lengthAdjust="spacing" textLength="93" x="415.5" y="451.292">Grafana Mimir</text></g><!--entity Prometheus--><g id="elem_Prometheus"><rect fill="#F1F1F1" height="46.2969" rx="2.5" ry="2.5" style="stroke:#181818;stroke-width:0.5;" width="125" x="166.5" y="293.2969"/><rect fill="#F1F1F1" height="10" style="stroke:#181818;stroke-width:0.5;" width="15" x="271.5" y="298.2969"/><rect fill="#F1F1F1" height="2" style="stroke:#181818;stroke-width:0.5;" width="4" x="269.5" y="300.2969"/><rect fill="#F1F1F1" height="2" style="stroke:#181818;stroke-width:0.5;" width="4" x="269.5" y="304.2969"/><text fill="#000000" font-family="sans-serif" font-size="14" lengthAdjust="spacing" textLength="85" x="181.5" y="326.292">Prometheus</text></g><!--entity Grafana Tempo--><g id="elem_Grafana Tempo"><rect fill="#F1F1F1" height="46.2969" rx="2.5" ry="2.5" style="stroke:#181818;stroke-width:0.5;" width="146" x="327" y="293.2969"/><rect fill="#F1F1F1" height="10" style="stroke:#181818;stroke-width:0.5;" width="15" x="453" y="298.2969"/><rect fill="#F1F1F1" height="2" style="stroke:#181818;stroke-width:0.5;" width="4" x="451" y="300.2969"/><rect fill="#F1F1F1" height="2" style="stroke:#181818;stroke-width:0.5;" width="4" x="451" y="304.2969"/><text fill="#000000" font-family="sans-serif" font-size="14" lengthAdjust="spacing" textLength="106" x="342" y="326.292">Grafana Tempo</text></g><!--entity Jaeger--><g id="elem_Jaeger"><rect fill="#F1F1F1" height="46.2969" rx="2.5" ry="2.5" style="stroke:#181818;stroke-width:0.5;" width="83" x="768.5" y="293.2969"/><rect fill="#F1F1F1" height="10" style="stroke:#181818;stroke-width:0.5;" width="15" x="831.5" y="298.2969"/><rect fill="#F1F1F1" height="2" style="stroke:#181818;stroke-width:0.5;" width="4" x="829.5" y="300.2969"/><rect fill="#F1F1F1" height="2" style="stroke:#181818;stroke-width:0.5;" width="4" x="829.5" y="304.2969"/><text fill="#000000" font-family="sans-serif" font-size="14" lengthAdjust="spacing" textLength="43" x="783.5" y="326.292">Jaeger</text></g><!--entity Grafana--><g id="elem_Grafana"><ellipse cx="138" cy="166.2969" fill="#F1F1F1" rx="8" ry="8" style="stroke:#181818;stroke-width:0.5;"/><text fill="#000000" font-family="sans-serif" font-size="14" lengthAdjust="spacing" textLength="53" x="111.5" y="196.292">Grafana</text></g><!--entity Grafana Loki--><g id="elem_Grafana Loki"><rect fill="#F1F1F1" height="46.2969" rx="2.5" ry="2.5" style="stroke:#181818;stroke-width:0.5;" width="124" x="7" y="293.2969"/><rect fill="#F1F1F1" height="10" style="stroke:#181818;stroke-width:0.5;" width="15" x="111" y="298.2969"/><rect fill="#F1F1F1" height="2" style="stroke:#181818;stroke-width:0.5;" width="4" x="109" y="300.2969"/><rect fill="#F1F1F1" height="2" style="stroke:#181818;stroke-width:0.5;" width="4" x="109" y="304.2969"/><text fill="#000000" font-family="sans-serif" font-size="14" lengthAdjust="spacing" textLength="84" x="22" y="326.292">Grafana Loki</text></g><!--link APP to OTEL Collector--><g id="link_APP_OTEL Collector"><path d="M541,54.0269 C525.15,57.6169 492.65,67.5069 479,90.2969 C467.02,110.2969 480.5077,126.0189 501.6177,139.9089 " fill="none" id="APP-to-OTEL Collector" style="stroke:#181818;stroke-width:1.0;"/><polygon fill="#181818" points="506.63,143.2069,501.3102,134.9183,502.4531,140.4585,496.9129,141.6014,506.63,143.2069" style="stroke:#181818;stroke-width:1.0;"/><text fill="#000000" font-family="sans-serif" font-size="13" lengthAdjust="spacing" textLength="26" x="480" y="103.3638">logs</text></g><!--link APP to OTEL Collector--><g id="link_APP_OTEL Collector"><path d="M549.17,60.4369 C548.43,68.1269 547.41,79.9769 547,90.2969 C546.3,108.0069 546.7925,122.0801 547.7825,136.9901 " fill="none" id="APP-to-OTEL Collector-1" style="stroke:#181818;stroke-width:1.0;"/><polygon fill="#181818" points="548.18,142.9769,551.5749,133.7316,547.8487,137.9879,543.5925,134.2617,548.18,142.9769" style="stroke:#181818;stroke-width:1.0;"/><text fill="#000000" font-family="sans-serif" font-size="13" lengthAdjust="spacing" textLength="40" x="548" y="103.3638">traces</text></g><!--link APP to OTEL Collector--><g id="link_APP_OTEL Collector"><path d="M559.31,57.2669 C569.75,63.4369 586.12,75.0369 593,90.2969 C596.11,97.1869 595.37,100.1269 593,107.2969 C588.64,120.5069 583.8093,128.5561 575.3993,138.6561 " fill="none" id="APP-to-OTEL Collector-2" style="stroke:#181818;stroke-width:1.0;"/><polygon fill="#181818" points="571.56,143.2669,580.3928,138.9102,574.7594,139.4245,574.2451,133.7911,571.56,143.2669" style="stroke:#181818;stroke-width:1.0;"/><text fill="#000000" font-family="sans-serif" font-size="13" lengthAdjust="spacing" textLength="48" x="596" y="103.3638">metrics</text></g><!--link OTEL Collector to Grafana Mimir--><g id="link_OTEL Collector_Grafana Mimir"><path d="M613.08,189.3069 C628.87,197.9769 643.89,209.7069 653,225.2969 C669.87,254.1669 765.95,193.3169 650,363.2969 C623.87,401.5969 580.5274,419.5194 539.7174,429.2194 " fill="none" id="OTEL Collector-to-Grafana Mimir" style="stroke:#181818;stroke-width:1.0;"/><polygon fill="#181818" points="533.88,430.6069,543.561,432.4173,538.7445,429.4507,541.7111,424.6341,533.88,430.6069" style="stroke:#181818;stroke-width:1.0;"/><text fill="#000000" font-family="sans-serif" font-size="13" lengthAdjust="spacing" textLength="26" x="707" y="320.8638">logs</text></g><!--link OTEL Collector to Prometheus--><g id="link_OTEL Collector_Prometheus"><path d="M479.36,181.7569 C428.96,194.3369 361.15,216.0369 309,250.2969 C289.41,263.1669 273.4592,275.9632 258.1192,289.2232 " fill="none" id="OTEL Collector-to-Prometheus" style="stroke:#181818;stroke-width:1.0;"/><polygon fill="#181818" points="253.58,293.1469,263.0046,290.2874,257.3627,289.8771,257.773,284.2352,253.58,293.1469" style="stroke:#181818;stroke-width:1.0;"/><text fill="#000000" font-family="sans-serif" font-size="13" lengthAdjust="spacing" textLength="48" x="353" y="238.3638">metrics</text></g><!--link OTEL Collector to Grafana Tempo--><g id="link_OTEL Collector_Grafana Tempo"><path d="M479.36,187.5469 C459.39,196.3069 439.24,208.5169 425,225.2969 C408.74,244.4669 403.5982,267.4468 401.6082,287.3068 " fill="none" id="OTEL Collector-to-Grafana Tempo" style="stroke:#181818;stroke-width:1.0;"/><polygon fill="#181818" points="401.01,293.2769,405.8874,284.7205,401.5085,288.3018,397.9272,283.9229,401.01,293.2769" style="stroke:#181818;stroke-width:1.0;"/><text fill="#000000" font-family="sans-serif" font-size="13" lengthAdjust="spacing" textLength="40" x="426" y="238.3638">traces</text></g><!--link OTEL Collector to Jaeger--><g id="link_OTEL Collector_Jaeger"><path d="M620.93,180.6369 C656.04,189.4869 697.88,203.5869 731,225.2969 C758.12,243.0769 778.1074,267.6788 792.2474,288.0388 " fill="none" id="OTEL Collector-to-Jaeger" style="stroke:#181818;stroke-width:1.0;"/><polygon fill="#181818" points="795.67,292.9669,793.8216,283.293,792.8179,288.8601,787.2508,287.8564,795.67,292.9669" style="stroke:#181818;stroke-width:1.0;"/><text fill="#000000" font-family="sans-serif" font-size="13" lengthAdjust="spacing" textLength="40" x="752" y="238.3638">traces</text></g><!--link Prometheus to Grafana Mimir--><g id="link_Prometheus_Grafana Mimir"><path d="M266.15,339.3569 C279.54,347.1269 294.85,355.7869 309,363.2969 C345.66,382.7369 382.537,400.6895 414.137,415.6495 " fill="none" id="Prometheus-to-Grafana Mimir" style="stroke:#181818;stroke-width:1.0;"/><polygon fill="#181818" points="419.56,418.2169,413.1371,410.7505,415.0408,416.0774,409.714,417.9812,419.56,418.2169" style="stroke:#181818;stroke-width:1.0;"/><text fill="#000000" font-family="sans-serif" font-size="13" lengthAdjust="spacing" textLength="48" x="358" y="384.3638">metrics</text></g><!--link Grafana to Grafana Loki--><g id="link_Grafana_Grafana Loki"><path d="M128.86,171.4269 C112.79,179.2569 79.96,197.9769 67,225.2969 C56.89,246.6169 58.2329,268.2115 61.9929,287.1715 " fill="none" id="Grafana-to-Grafana Loki" style="stroke:#181818;stroke-width:1.0;"/><polygon fill="#181818" points="63.16,293.0569,65.3329,283.4507,62.1874,288.1524,57.4857,285.0069,63.16,293.0569" style="stroke:#181818;stroke-width:1.0;"/><text fill="#000000" font-family="sans-serif" font-size="13" lengthAdjust="spacing" textLength="26" x="68" y="238.3638">logs</text></g><!--link Grafana to Grafana Tempo--><g id="link_Grafana_Grafana Tempo"><path d="M144.58,175.6969 C157.8,191.8769 189.42,227.1169 225,242.2969 C259.49,257.0069 273.87,237.1669 309,250.2969 C334.46,259.8069 354.7419,274.4435 372.0119,289.3035 " fill="none" id="Grafana-to-Grafana Tempo" style="stroke:#181818;stroke-width:1.0;"/><polygon fill="#181818" points="376.56,293.2169,372.3468,284.3147,372.7699,289.9557,367.1289,290.3788,376.56,293.2169" style="stroke:#181818;stroke-width:1.0;"/><text fill="#000000" font-family="sans-serif" font-size="13" lengthAdjust="spacing" textLength="40" x="226" y="238.3638">traces</text></g><!--link Grafana to Prometheus--><g id="link_Grafana_Prometheus"><path d="M135.1,175.3669 C130.42,189.8369 122.92,220.6869 135,242.2969 C138.31,248.2169 142.45,246.3869 148,250.2969 C167.01,263.6969 182.8187,276.2581 198.3987,289.2281 " fill="none" id="Grafana-to-Prometheus" style="stroke:#181818;stroke-width:1.0;"/><polygon fill="#181818" points="203.01,293.0669,198.6523,284.2345,199.1673,289.8679,193.5339,290.3829,203.01,293.0669" style="stroke:#181818;stroke-width:1.0;"/><text fill="#000000" font-family="sans-serif" font-size="13" lengthAdjust="spacing" textLength="48" x="136" y="238.3638">metrics</text></g><!--link OTEL Collector to OpenSearch--><g id="link_OTEL Collector_OpenSearch"><path d="M506.86,189.2969 C486.2,203.0169 468.09,221.9069 479,242.2969 C482.02,247.9469 485.84,246.4969 491,250.2969 C509.58,263.9969 525.1456,276.5399 540.5856,289.4399 " fill="none" id="OTEL Collector-to-OpenSearch" style="stroke:#181818;stroke-width:1.0;"/><polygon fill="#181818" points="545.19,293.2869,540.848,284.4468,541.353,290.0811,535.7187,290.586,545.19,293.2869" style="stroke:#181818;stroke-width:1.0;"/><text fill="#000000" font-family="sans-serif" font-size="13" lengthAdjust="spacing" textLength="26" x="480" y="238.3638">logs</text></g><!--link OTEL Collector to OpenSearch--><g id="link_OTEL Collector_OpenSearch"><path d="M548.59,189.3169 C547.97,200.1469 547.31,213.4069 547,225.2969 C546.8,232.8469 545.81,234.8369 547,242.2969 C549.81,259.8169 554.0138,273.2377 559.4938,287.4677 " fill="none" id="OTEL Collector-to-OpenSearch-1" style="stroke:#181818;stroke-width:1.0;"/><polygon fill="#181818" points="561.65,293.0669,562.1484,283.2306,559.8531,288.4009,554.6829,286.1056,561.65,293.0669" style="stroke:#181818;stroke-width:1.0;"/><text fill="#000000" font-family="sans-serif" font-size="13" lengthAdjust="spacing" textLength="48" x="548" y="238.3638">metrics</text></g><!--link OTEL Collector to OpenSearch--><g id="link_OTEL Collector_OpenSearch"><path d="M576.3,189.4569 C586.01,199.3069 595.89,211.7469 601,225.2969 C609.6,248.1069 601.3433,269.4878 590.2233,287.8078 " fill="none" id="OTEL Collector-to-OpenSearch-2" style="stroke:#181818;stroke-width:1.0;"/><polygon fill="#181818" points="587.11,292.9369,595.1993,287.3188,589.7044,288.6626,588.3605,283.1677,587.11,292.9369" style="stroke:#181818;stroke-width:1.0;"/><text fill="#000000" font-family="sans-serif" font-size="13" lengthAdjust="spacing" textLength="40" x="604" y="238.3638">traces</text></g><!--SRC=[ZP7FIiGm4CRlUOeXztq13uAA2BBImkvDF4pJCHkQPifaLX3ntGrYrws6fRb-ltn_c3o4DA7W2BVe1YzyJFqTHnQmAfXoqIYfDHeq4jYcooHls8KOz1swyeLI3yeSC_G1VJ6onjoqBMmsr_3SxE-tKEmYEMLvWIk8xFCblOGwkaYCf19SDl-aR_v1y1KJmbCOmszWdMs5Yzc1Zdczxvx6YS-Arkb794_dUymYhDvqBc1cPO5jUGYdFLNYRxK5LDzgfd91zEMmoZrR-31GNdrJCr7Q4Oexd6giXUUujVpFWCyl]--></g></svg>